# xmcd
#
# Track frame offsets:
#   150
#   13179
#   22151
#   38556
#   50672
#   60633
#   73059
#   82554
#   91598
#   104122
#   114655
#   127412
#   137624
#
# Disc length: 1967 seconds
#
# Revision: 0
# Processed by: cddbd v1.4PL0 Copyright (c) Steve Scherf et al.
# Submitted via: uFREEDB 1.6.0
#
DISCID=b307ad0d
DTITLE=Robbins, Marty - Unreleased 1951-58, Vol. 2
DYEAR=1900
DGENRE=Country
TTITLE0=The Convict And The Rose
TTITLE1=The Bus Stop Song
TTITLE2=The Little Box Of Pine In The 7:29
TTITLE3=The Wreck Of The Number Nine
TTITLE4=The Sad Lover
TTITLE5=The Little Shirt My Mother Made For Me
TTITLE6=The Wreck Of The 12.56
TTITLE7=Beautiful Ohio
TTITLE8=A Faded Petal From A Beautiful Bouquet
TTITLE9=Many Tears Ago
TTITLE10=Address Unknown
TTITLE11=Footprints In The Snow
TTITLE12=It's Driving Me Crazy
EXTD=
EXTT0=
EXTT1=
EXTT2=
EXTT3=
EXTT4=
EXTT5=
EXTT6=
EXTT7=
EXTT8=
EXTT9=
EXTT10=
EXTT11=
EXTT12=
PLAYORDER=
